<svg width="26" height="26" viewBox="0 0 26 26" fill="none" xmlns="http://www.w3.org/2000/svg">
<circle opacity="0.8" cx="13" cy="13" r="13" fill="#000005"/>
<path fill-rule="evenodd" clip-rule="evenodd" d="M6 8C6 7.44772 6.44772 7 7 7H19C19.5523 7 20 7.44772 20 8C20 8.55228 19.5523 9 19 9H7C6.44772 9 6 8.55228 6 8ZM6 13C6 12.4477 6.44772 12 7 12H19C19.5523 12 20 12.4477 20 13C20 13.5523 19.5523 14 19 14H7C6.44772 14 6 13.5523 6 13ZM7 17C6.44772 17 6 17.4477 6 18C6 18.5523 6.44772 19 7 19H19C19.5523 19 20 18.5523 20 18C20 17.4477 19.5523 17 19 17H7Z" fill="white"/>
</svg>
