<svg width="26" height="26" viewBox="0 0 26 26" fill="none" xmlns="http://www.w3.org/2000/svg">
<circle opacity="0.8" cx="13" cy="13" r="12" stroke="#000005" stroke-width="2"/>
<path opacity="0.8" fill-rule="evenodd" clip-rule="evenodd" d="M9.93907 9.89069C8.99943 9.93041 8.20904 10.6227 8.05205 11.5578L7.02615 17.6689C6.82138 18.8886 7.76172 20 8.99855 20H17.0016C18.2384 20 19.1788 18.8886 18.974 17.6689L17.9481 11.5578C17.7864 10.5945 16.9525 9.88889 15.9757 9.88889H15.9056C15.768 7.70858 14.4849 6 12.9224 6C11.3594 6 10.0761 7.70952 9.93907 9.89069ZM12.4426 8.40011C12.2658 8.65263 12.1062 9.00879 12.0129 9.44446H13.8319C13.7386 9.00879 13.579 8.65263 13.4022 8.40011C13.2653 8.20465 13.1385 8.09899 13.0543 8.0481C12.9773 8.00161 12.9373 8 12.9224 8C12.9075 8 12.8675 8.00161 12.7905 8.0481C12.7063 8.09899 12.5795 8.20465 12.4426 8.40011Z" fill="#000005"/>
</svg>
