<svg width="26" height="26" viewBox="0 0 26 26" fill="none" xmlns="http://www.w3.org/2000/svg">
<circle opacity="0.8" cx="13" cy="13" r="12" stroke="#000005" stroke-width="2"/>
<path opacity="0.8" fill-rule="evenodd" clip-rule="evenodd" d="M7.94975 8.05025C7.60804 8.39196 7.60804 8.94598 7.94975 9.28768L11.6621 13L7.94975 16.7123C7.60804 17.054 7.60804 17.608 7.94975 17.9498C8.29146 18.2915 8.84548 18.2915 9.18719 17.9498L12.8995 14.2374L16.6118 17.9497C16.9535 18.2915 17.5075 18.2915 17.8492 17.9497C18.191 17.608 18.191 17.054 17.8492 16.7123L14.1369 13L17.8492 9.28769C18.191 8.94599 18.191 8.39197 17.8492 8.05026C17.5075 7.70855 16.9535 7.70855 16.6118 8.05026L12.8995 11.7626L9.18719 8.05025C8.84548 7.70854 8.29146 7.70854 7.94975 8.05025Z" fill="#000005"/>
</svg>
