<svg width="16" height="20" viewBox="0 0 16 20" fill="none" xmlns="http://www.w3.org/2000/svg">
<g opacity="0.3">
<mask id="path-1-inside-1_230_34571" fill="white">
<path fill-rule="evenodd" clip-rule="evenodd" d="M5 3.5V2.5H14V14.5H13V4.5C13 3.94772 12.5523 3.5 12 3.5H5ZM3 3.5V1.5C3 0.947715 3.44772 0.5 4 0.5H15C15.5523 0.5 16 0.947715 16 1.5V15.5C16 16.0523 15.5523 16.5 15 16.5H13V18.5C13 19.0523 12.5523 19.5 12 19.5H1C0.447715 19.5 0 19.0523 0 18.5V4.5C0 3.94772 0.447715 3.5 1 3.5H3Z"/>
</mask>
<path fill-rule="evenodd" clip-rule="evenodd" d="M5 3.5V2.5H14V14.5H13V4.5C13 3.94772 12.5523 3.5 12 3.5H5ZM3 3.5V1.5C3 0.947715 3.44772 0.5 4 0.5H15C15.5523 0.5 16 0.947715 16 1.5V15.5C16 16.0523 15.5523 16.5 15 16.5H13V18.5C13 19.0523 12.5523 19.5 12 19.5H1C0.447715 19.5 0 19.0523 0 18.5V4.5C0 3.94772 0.447715 3.5 1 3.5H3Z" fill="white"/>
<path d="M5 2.5V0.5H3V2.5H5ZM5 3.5H3V5.5H5V3.5ZM14 2.5H16V0.5H14V2.5ZM14 14.5V16.5H16V14.5H14ZM13 14.5H11V16.5H13V14.5ZM3 3.5V5.5H5V3.5H3ZM13 16.5V14.5H11V16.5H13ZM3 2.5V3.5H7V2.5H3ZM14 0.5H5V4.5H14V0.5ZM16 14.5V2.5H12V14.5H16ZM13 16.5H14V12.5H13V16.5ZM11 4.5V14.5H15V4.5H11ZM12 5.5C11.4477 5.5 11 5.05228 11 4.5H15C15 2.84315 13.6569 1.5 12 1.5V5.5ZM5 5.5H12V1.5H5V5.5ZM1 1.5V3.5H5V1.5H1ZM4 -1.5C2.34315 -1.5 1 -0.156854 1 1.5H5C5 2.05228 4.55228 2.5 4 2.5V-1.5ZM15 -1.5H4V2.5H15V-1.5ZM18 1.5C18 -0.156854 16.6569 -1.5 15 -1.5V2.5C14.4477 2.5 14 2.05228 14 1.5H18ZM18 15.5V1.5H14V15.5H18ZM15 18.5C16.6569 18.5 18 17.1569 18 15.5H14C14 14.9477 14.4477 14.5 15 14.5V18.5ZM13 18.5H15V14.5H13V18.5ZM11 16.5V18.5H15V16.5H11ZM11 18.5C11 17.9477 11.4477 17.5 12 17.5V21.5C13.6569 21.5 15 20.1569 15 18.5H11ZM12 17.5H1V21.5H12V17.5ZM1 17.5C1.55229 17.5 2 17.9477 2 18.5H-2C-2 20.1569 -0.656855 21.5 1 21.5V17.5ZM2 18.5V4.5H-2V18.5H2ZM2 4.5C2 5.05228 1.55228 5.5 1 5.5V1.5C-0.656854 1.5 -2 2.84315 -2 4.5H2ZM1 5.5H3V1.5H1V5.5Z" fill="#000005" mask="url(#path-1-inside-1_230_34571)"/>
</g>
</svg>
