<svg width="18" height="20" viewBox="0 0 18 20" fill="none" xmlns="http://www.w3.org/2000/svg">
<path opacity="0.8" fill-rule="evenodd" clip-rule="evenodd" d="M6 1C6 0.447715 6.44772 0 7 0H11C11.5523 0 12 0.447715 12 1C12 1.55228 11.5523 2 11 2H17C17.5523 2 18 2.44772 18 3C18 3.55228 17.5523 4 17 4H1C0.447716 4 0 3.55228 0 3C0 2.44772 0.447715 2 1 2H7C6.44772 2 6 1.55228 6 1ZM2.52306 17.3217L1.19801 5H3.20954L4.51159 17.1079C4.56622 17.6159 4.99496 18.001 5.50586 18.001H12.5592C13.0701 18.001 13.4988 17.6159 13.5535 17.1079L14.8555 5H16.8671L15.542 17.3217C15.3781 18.8456 14.0919 20.001 12.5592 20.001H5.50586C3.97317 20.001 2.68694 18.8457 2.52306 17.3217ZM6 9C6 8.44772 6.44772 8 7 8C7.55228 8 8 8.44772 8 9V13C8 13.5523 7.55228 14 7 14C6.44772 14 6 13.5523 6 13V9ZM11 8C10.4477 8 10 8.44772 10 9V13C10 13.5523 10.4477 14 11 14C11.5523 14 12 13.5523 12 13V9C12 8.44772 11.5523 8 11 8Z" fill="#000005"/>
</svg>
