<svg width="26" height="26" viewBox="0 0 26 26" fill="none" xmlns="http://www.w3.org/2000/svg">
<circle opacity="0.8" cx="13" cy="13" r="12" stroke="#000005" stroke-width="2"/>
<g opacity="0.8">
<rect x="6" y="8.71484" width="14" height="1.71429" rx="0.857143" fill="#000005"/>
<rect x="6" y="15.5723" width="14" height="1.71429" rx="0.857143" fill="#000005"/>
<path d="M11.125 9.57143C11.125 10.42 10.417 11.1429 9.5 11.1429C8.583 11.1429 7.875 10.42 7.875 9.57143C7.875 8.72289 8.583 8 9.5 8C10.417 8 11.125 8.72289 11.125 9.57143Z" stroke="#000005" stroke-width="2"/>
<path d="M18.125 16.4289C18.125 17.2774 17.417 18.0003 16.5 18.0003C15.583 18.0003 14.875 17.2774 14.875 16.4289C14.875 15.5803 15.583 14.8574 16.5 14.8574C17.417 14.8574 18.125 15.5803 18.125 16.4289Z" stroke="#000005" stroke-width="2"/>
</g>
</svg>
