<svg width="198" height="70" viewBox="0 0 198 70" fill="none" xmlns="http://www.w3.org/2000/svg">
<path opacity="0.9" d="M27.36 36.644H42.716V27.36H27.36V36.644ZM27.36 52H21.2V21.2H45.796L48.832 24.324V39.724L45.796 42.804H27.36V52Z" fill="#000005"/>
<circle opacity="0.4" cx="35" cy="35" r="34" stroke="#000005" stroke-width="2"/>
<path opacity="0.8" d="M83.7 37.03H94.17V30.7H83.7V37.03ZM83.7 47.5H79.5V26.5H96.27L98.34 28.63V39.13L96.27 41.23H83.7V47.5ZM105.233 37.03H115.703V30.7H105.233V37.03ZM119.873 47.5H115.703V45.43L113.603 43.3L111.503 41.23H105.233V47.5H101.033V26.5H117.803L119.873 28.63V39.13L117.803 41.23L119.873 43.3V47.5ZM127.059 47.5H122.859V26.5H127.059V47.5ZM146.836 47.5H132.136L130.066 45.43V41.23H134.266V43.3H144.736V39.13H132.136L130.066 37.63V28.63L132.136 26.5H146.836L148.906 28.63V32.8H144.736V30.7H134.266V34.9H146.836L148.906 37V45.43L146.836 47.5ZM156.093 47.5H151.893V26.5H156.093L163.413 36.67L170.853 26.5H174.903V47.5H170.703V33.34L165.213 41.41H161.703L156.093 33.34V47.5ZM181.808 37.03H192.278V30.7H185.978L181.808 34.93V37.03ZM181.808 47.5H177.608V32.83L183.878 26.5H196.448V47.5H192.278V41.23H181.808V47.5Z" fill="#000005"/>
</svg>
