<svg width="26" height="26" viewBox="0 0 26 26" fill="none" xmlns="http://www.w3.org/2000/svg">
<circle opacity="0.8" cx="13" cy="13" r="12" stroke="#000005" stroke-width="2"/>
<path opacity="0.8" fill-rule="evenodd" clip-rule="evenodd" d="M5.96243 12.166C9.72052 10.4725 12.2265 9.35603 13.4804 8.81661C17.0604 7.27647 17.8043 7.00893 18.2892 7.00009C18.3959 6.99815 18.6343 7.02549 18.7888 7.15511C18.9192 7.26457 18.9551 7.41243 18.9722 7.5162C18.9894 7.61998 19.0108 7.85638 18.9938 8.0411C18.7998 10.1494 17.9603 15.2658 17.5332 17.6272C17.3525 18.6264 16.9967 18.9614 16.6522 18.9942C16.0594 19.0506 15.5796 18.6968 15.0455 18.3029C14.9051 18.1994 14.761 18.0932 14.6101 17.9909C14.0178 17.5893 13.56 17.2669 13.1011 16.9436L13.101 16.9435C12.6808 16.6476 12.2595 16.3509 11.7332 15.9921C10.6377 15.2455 11.0963 14.7882 11.7078 14.1785L11.7078 14.1785C11.8068 14.0798 11.9098 13.9771 12.0108 13.8686C12.0559 13.8201 12.2766 13.6079 12.5877 13.3088L12.5877 13.3087L12.5878 13.3087C13.5858 12.3491 15.5143 10.4946 15.5629 10.28C15.5709 10.2448 15.5783 10.1136 15.503 10.0443C15.4276 9.97502 15.3163 9.99871 15.236 10.0176C15.1223 10.0443 13.3097 11.2834 9.79841 13.7349C9.28392 14.1003 8.81792 14.2783 8.40039 14.269C7.9401 14.2587 7.05469 13.9998 6.39648 13.7785C6.29986 13.7461 6.20561 13.7154 6.11465 13.6858L6.11452 13.6858C5.4455 13.4682 4.95421 13.3084 5.00339 12.9026C5.03249 12.6625 5.35217 12.417 5.96243 12.166Z" fill="#000005"/>
</svg>
