<svg width="26" height="26" viewBox="0 0 26 26" fill="none" xmlns="http://www.w3.org/2000/svg">
<path fill-rule="evenodd" clip-rule="evenodd" d="M8.04394 7.11113H8.99361C9.21875 3.68493 11.3186 1 13.8758 1C16.4329 1 18.5328 3.68493 18.7579 7.11113H19.961C20.9326 7.11113 21.7637 7.80953 21.9311 8.76669L23.1802 15.9112C22.2582 15.3338 21.1681 15 20 15C16.6863 15 14 17.6863 14 21C14 21.7013 14.1203 22.3744 14.3414 23H5.96539C4.72308 23 3.78131 21.8793 3.99526 20.6556L6.07382 8.76669C6.24116 7.80952 7.07226 7.11113 8.04394 7.11113ZM12.0254 4.14732C11.4996 4.86828 11.101 5.89794 10.9991 7.11113H16.7525C16.6506 5.89794 16.2519 4.86828 15.7262 4.14732C15.1129 3.30643 14.4343 3 13.8758 3C13.3172 3 12.6386 3.30643 12.0254 4.14732Z" fill="white"/>
<path fill-rule="evenodd" clip-rule="evenodd" d="M21 17H19V20H16V22H19V25H21V22H24V20H21V17Z" fill="white"/>
</svg>
