<svg width="22" height="21" viewBox="0 0 22 21" fill="none" xmlns="http://www.w3.org/2000/svg">
<path opacity="0.8" d="M16.0875 0.787109C14.85 0.787109 12.375 1.55047 11 3.99322C9.625 1.55047 7.15 0.787109 5.775 0.787109C2.6125 0.787109 0 3.68787 0 7.19932C0 13.3062 10.175 20.1764 10.5875 20.4818L11 20.7871L11.4125 20.4818C11.825 20.1764 22 13.1535 22 7.19932C22 3.68787 19.3875 0.787109 16.0875 0.787109ZM11 18.2871C7.975 16.1497 2 11.4092 2 7.28711C2 4.53902 3.4375 2.78711 5.775 2.78711C5.9125 2.78711 8.68066 2.78711 10.1623 5.97795L11 8.28711L11.8299 5.97795C13.2142 2.78711 16.0988 2.78711 16.2363 2.78711C18.5738 2.78711 20 4.53902 20 7.28711C20 11.4092 14.025 16.1497 11 18.2871Z" fill="#000005"/>
</svg>
