<svg width="22" height="20" viewBox="0 0 22 20" fill="none" xmlns="http://www.w3.org/2000/svg">
<path d="M16.0875 0C14.85 0 12.375 0.763359 11 3.20611C9.625 0.763359 7.15 0 5.775 0C2.6125 0 0 2.90076 0 6.41221C0 12.5191 10.175 19.3893 10.5875 19.6947L11 20L11.4125 19.6947C11.825 19.3893 22 12.3664 22 6.41221C22 2.90076 19.3875 0 16.0875 0ZM11 17.5C7.975 15.3626 2 10.6221 2 6.5C2 3.75191 3.4375 2 5.775 2C5.9125 2 8.68066 2 10.1623 5.19084L11 7.5L11.8299 5.19084C13.2142 2 16.0988 2 16.2363 2C18.5738 2 20 3.75191 20 6.5C20 10.6221 14.025 15.3626 11 17.5Z" fill="white"/>
</svg>
